<svg width="416" height="200" viewBox="0 0 416 200" fill="none" xmlns="http://www.w3.org/2000/svg">
<path d="M182.701 35.1287C187.537 35.1287 191.457 31.2201 191.457 26.3986C191.457 21.5771 187.537 17.6685 182.701 17.6685C177.865 17.6685 173.945 21.5771 173.945 26.3986C173.945 31.2201 177.865 35.1287 182.701 35.1287Z" fill="#7D88F2"/>
<path d="M207.39 29.0107C223.428 29.0107 236.543 41.7031 237.177 57.5423C245.054 58.821 251.95 63.0012 256.731 68.9483C257.417 65.6513 257.779 62.2378 257.779 58.7412C257.779 31.0381 235.174 8.5 207.39 8.5C201.709 8.5 197.104 13.0915 197.104 18.7554C197.104 24.4192 201.709 29.0107 207.39 29.0107Z" fill="#23264F"/>
<path d="M200.453 88.6406C200.453 88.3106 200.468 87.9841 200.478 87.6565C187.359 84.5389 177.571 72.7617 177.571 58.7406C177.571 50.9106 180.592 43.5464 186.075 37.9585C184.775 38.4628 183.366 38.7499 181.886 38.7499C175.495 38.7499 170.313 33.5837 170.313 27.2109C170.313 26.215 170.453 25.2539 170.691 24.332C161.858 33.6846 157 45.8374 157 58.7406C157 86.4438 179.605 108.982 207.39 108.982C207.566 108.982 207.74 108.971 207.915 108.969C203.263 103.481 200.453 96.3894 200.453 88.6406Z" fill="#23264F"/>
<path d="M228.788 86.2387C228.557 85.7486 227.858 85.7486 227.627 86.2387L225.522 90.7074C225.323 91.1313 225.633 91.6183 226.103 91.6183H230.312C230.781 91.6183 231.092 91.1313 230.892 90.7074L228.788 86.2387Z" fill="#23264F"/>
<path d="M232.062 61.7822C217.184 61.7822 205.124 73.8073 205.124 88.6409C205.124 103.474 217.184 115.5 232.062 115.5C246.939 115.5 259 103.475 259 88.6409C259 73.807 246.939 61.7822 232.062 61.7822ZM237.275 97.5087H234.532C234.285 97.5087 234.06 97.367 233.953 97.1442L232.771 94.6673C232.664 94.4448 232.439 94.3029 232.192 94.3029H224.222C223.975 94.3029 223.749 94.4448 223.643 94.6673L222.46 97.1442C222.354 97.367 222.129 97.5087 221.881 97.5087H219.241C218.764 97.5087 218.454 97.008 218.668 96.583L225.681 82.6338C225.79 82.4174 226.012 82.281 226.254 82.281H230.261C230.503 82.281 230.725 82.4174 230.834 82.6336L237.848 96.583C238.061 97.008 237.751 97.5087 237.275 97.5087ZM244.463 96.8696C244.463 97.2226 244.176 97.5087 243.822 97.5087H241.174C240.82 97.5087 240.533 97.2226 240.533 96.8696V82.9201C240.533 82.5671 240.82 82.281 241.174 82.281H243.822C244.176 82.281 244.463 82.5671 244.463 82.9201V96.8696Z" fill="#23264F"/>
<path d="M68.0096 156.414H48.127C47.2515 156.414 46.5418 157.135 46.5418 158.023V189.319C46.5418 190.208 45.8321 190.929 44.9566 190.929H32.6382C31.7627 190.929 31.053 190.208 31.053 189.319V158.023C31.053 157.135 30.3433 156.414 29.4679 156.414H9.58517C8.7097 156.414 8 155.693 8 154.805V149.109C8 148.221 8.7097 147.5 9.58517 147.5H68.0097C68.8851 147.5 69.5948 148.221 69.5948 149.109V154.805C69.5948 155.693 68.8851 156.414 68.0096 156.414Z" fill="#23264F"/>
<path d="M79.6797 173.443V149.109C79.6797 148.221 80.3894 147.5 81.2649 147.5H93.5833C94.4587 147.5 95.1684 148.221 95.1684 149.109V173.1C95.1684 179.271 100.572 182.815 110.297 182.815C120.022 182.815 125.426 179.271 125.426 173.1V149.109C125.426 148.221 126.135 147.5 127.011 147.5H139.329C140.205 147.5 140.914 148.221 140.914 149.109V173.443C140.914 184.414 129.388 191.5 110.297 191.5C91.2062 191.5 79.6797 184.414 79.6797 173.443Z" fill="#23264F"/>
<path d="M211.008 156.414H191.125C190.25 156.414 189.54 157.135 189.54 158.023V189.319C189.54 190.208 188.831 190.929 187.955 190.929H175.637C174.761 190.929 174.052 190.208 174.052 189.319V158.023C174.052 157.135 173.342 156.414 172.466 156.414H152.584C151.708 156.414 150.999 155.693 150.999 154.805V149.109C150.999 148.221 151.708 147.5 152.584 147.5H211.008C211.884 147.5 212.593 148.221 212.593 149.109V154.805C212.593 155.693 211.884 156.414 211.008 156.414Z" fill="#23264F"/>
<path d="M274.007 183.967V189.319C274.007 190.208 273.297 190.929 272.422 190.929H225.164C224.288 190.929 223.579 190.208 223.579 189.319V149.109C223.579 148.221 224.288 147.5 225.164 147.5H271.522C272.397 147.5 273.107 148.221 273.107 149.109V154.462C273.107 155.351 272.397 156.071 271.522 156.071H240.292C239.417 156.071 238.707 156.792 238.707 157.681V162.919C238.707 163.808 239.417 164.529 240.292 164.529H263.417C264.293 164.529 265.002 165.249 265.002 166.138V171.148C265.002 172.036 264.293 172.757 263.417 172.757H240.292C239.417 172.757 238.707 173.478 238.707 174.366V180.748C238.707 181.637 239.417 182.357 240.292 182.357H272.422C273.297 182.357 274.007 183.078 274.007 183.967Z" fill="#23264F"/>
<path d="M328.56 182.357H300.496C299.929 182.357 299.405 182.665 299.122 183.163L295.174 190.123C294.891 190.621 294.368 190.929 293.801 190.929H281.364C280.119 190.929 279.36 189.54 280.018 188.468L304.698 148.258C304.987 147.787 305.496 147.5 306.043 147.5H323.374C323.921 147.5 324.43 147.787 324.719 148.258L349.398 188.468C350.056 189.54 349.297 190.929 348.053 190.929H335.256C334.689 190.929 334.165 190.621 333.882 190.123L329.934 183.163C329.651 182.665 329.127 182.357 328.56 182.357ZM323.25 171.489L315.903 158.501C315.294 157.424 313.763 157.424 313.154 158.501L305.807 171.489C305.2 172.562 305.962 173.9 307.181 173.9H321.876C323.094 173.9 323.857 172.562 323.25 171.489Z" fill="#23264F"/>
<path d="M406.415 156.414H386.532C385.657 156.414 384.947 157.135 384.947 158.023V189.319C384.947 190.208 384.237 190.929 383.362 190.929H371.043C370.168 190.929 369.458 190.208 369.458 189.319V158.023C369.458 157.135 368.749 156.414 367.873 156.414H347.99C347.115 156.414 346.405 155.693 346.405 154.805V149.109C346.405 148.221 347.115 147.5 347.99 147.5H406.415C407.29 147.5 408 148.221 408 149.109V154.805C408 155.693 407.29 156.414 406.415 156.414Z" fill="#23264F"/>
</svg>
