<svg width="1121" height="850" viewBox="0 0 1121 850" fill="none" xmlns="http://www.w3.org/2000/svg">
<path d="M215 610H305C327.091 610 345 627.909 345 650V706C345 728.091 362.909 746 385 746H497C519.091 746 537 728.091 537 706V698C537 675.909 554.909 658 577 658H801C823.091 658 841 675.909 841 698V730C841 752.091 858.909 770 881 770H1030" stroke="white" stroke-width="2"/>
<path d="M94 151.5V570C94 592.091 111.909 610 134 610H199.5" stroke="white" stroke-width="2" stroke-linejoin="round" stroke-dasharray="12 12"/>
<rect x="225" y="578" width="56" height="56" rx="28" transform="rotate(90 225 578)" fill="#B4BAFB"/>
<path d="M183.33 618.88L185.827 593.12H194.597L197.05 618.88H192.159L191.791 614.723H188.677L188.354 618.88H183.33ZM189.044 610.61H191.395L190.264 597.511H190.029L189.044 610.61Z" fill="white"/>
<path d="M200.31 593.12V601.8C200.31 603.346 201.563 604.6 203.11 604.6H207.87C209.416 604.6 210.67 603.346 210.67 601.8V593.12" stroke="white" stroke-width="2.80001"/>
<rect x="203.946" y="593.12" width="3.36" height="25.4801" fill="white"/>
<rect x="769" y="690" width="56" height="56" rx="28" transform="rotate(180 769 690)" fill="#B4BAFB"/>
<path d="M740.808 649.628C740.611 649.677 740.434 649.785 740.3 649.937C740.166 650.089 740.081 650.279 740.058 650.48L738.832 660.748L730.552 666.943C730.391 667.063 730.271 667.228 730.205 667.417C730.14 667.606 730.133 667.81 730.184 668.003L730.189 668.019C730.244 668.214 730.357 668.387 730.514 668.516C730.67 668.645 730.862 668.724 731.063 668.741L754.384 670.775C754.574 670.791 754.765 670.754 754.934 670.666C755.103 670.578 755.244 670.444 755.339 670.279C755.434 670.114 755.481 669.925 755.472 669.735C755.464 669.544 755.401 669.36 755.292 669.204L741.87 650.024C741.754 649.858 741.59 649.732 741.4 649.661C741.21 649.59 741.003 649.579 740.807 649.628L740.808 649.628Z" fill="white"/>
<rect x="417" y="714" width="56" height="56" rx="28" fill="#B4BAFB"/>
<path d="M433.5 743.512L443 750L456.5 734" stroke="white" stroke-width="4" stroke-linecap="round" stroke-linejoin="round"/>
<rect x="1121" y="698" width="152" height="152" rx="30" transform="rotate(90 1121 698)" fill="#B4BAFB"/>
<path d="M1007.35 741.5V753.795H992.942V741.5H985V773.5H992.942V760.363H1007.35V773.5H1015.29V741.5H1007.35Z" fill="white"/>
<path d="M1052.9 741.5H1037.57C1029.16 741.5 1024.18 745.289 1024.18 751.689C1024.18 756.153 1026.48 759.353 1030.64 760.953L1022.33 773.5H1030.92L1038.21 762.047H1044.95V773.5H1052.9V741.5ZM1038.12 756.237C1034.24 756.237 1032.21 754.721 1032.21 751.858C1032.21 749.079 1034.24 747.563 1038.12 747.563H1044.95V756.237H1038.12Z" fill="white"/>
<path d="M1105 741.5H1093.46L1084.22 764.658L1074.9 741.5H1063.26V773.5H1071.02V750.932L1080.07 773.5H1088.19L1097.24 750.932V773.5H1105V741.5Z" fill="white"/>
<path d="M1006 785.5C1018.91 801.347 1052.57 823.533 1084 785.5" stroke="white" stroke-width="7" stroke-linecap="round"/>
<g opacity="0.3" filter="url(#filter0_f_1_1042)">
<rect x="2" y="2" width="184" height="184" rx="40" fill="#DCDFFF"/>
</g>
<rect opacity="0.6" x="10" y="10" width="168" height="168" rx="40" fill="#B4BAFB"/>
<rect x="170" y="18" width="152" height="152" rx="30" transform="rotate(90 170 18)" fill="#6570E3"/>
<path fill-rule="evenodd" clip-rule="evenodd" d="M92.5 128.732C93 128.911 93.5 129 94 129C94.5 129 95 128.911 95.5 128.732C96 128.554 96.4375 128.316 96.8125 128.019C105.938 120.35 112.75 113.232 117.25 106.664C121.75 100.094 124 93.9554 124 88.2484C124 79.3312 120.984 72.2272 114.951 66.9363C108.921 61.6454 101.938 59 94 59C86.0625 59 79.0788 61.6454 73.0487 66.9363C67.0163 72.2272 64 79.3312 64 88.2484C64 93.9554 66.25 100.094 70.75 106.664C75.25 113.232 82.0625 120.35 91.1875 128.019C91.5625 128.316 92 128.554 92.5 128.732ZM94 94C98.9706 94 103 89.9706 103 85C103 80.0294 98.9706 76 94 76C89.0294 76 85 80.0294 85 85C85 89.9706 89.0294 94 94 94Z" fill="white"/>
<defs>
<filter id="filter0_f_1_1042" x="0" y="0" width="188" height="188" filterUnits="userSpaceOnUse" color-interpolation-filters="sRGB">
<feFlood flood-opacity="0" result="BackgroundImageFix"/>
<feBlend mode="normal" in="SourceGraphic" in2="BackgroundImageFix" result="shape"/>
<feGaussianBlur stdDeviation="1" result="effect1_foregroundBlur_1_1042"/>
</filter>
</defs>
</svg>
